<?xml version="1.0" encoding="UTF-8" standalone="no"?>
<!DOCTYPE svg PUBLIC "-//W3C//DTD SVG 1.1//EN"
 "http://www.w3.org/Graphics/SVG/1.1/DTD/svg11.dtd">
<!-- Generated by graphviz version 2.40.1 (20161225.0304)
 -->
<!-- Title: %0 Pages: 1 -->
<svg width="452pt" height="282pt"
 viewBox="0.00 0.00 452.49 282.00" xmlns="http://www.w3.org/2000/svg" xmlns:xlink="http://www.w3.org/1999/xlink">
<g id="graph0" class="graph" transform="scale(1 1) rotate(0) translate(4 278)">
<title>%0</title>
<polygon fill="#ffffff" stroke="transparent" points="-4,4 -4,-278 448.489,-278 448.489,4 -4,4"/>
<!-- fibos_accounts -->
<g id="node3" class="node">
<title>fibos_accounts</title>
<g id="a_node3"><a xlink:title="fibos_accounts">
<polygon fill="#ffffff" stroke="#000000" points="297.383,-161.5 297.383,-249.5 395.375,-249.5 395.375,-161.5 297.383,-161.5"/>
<text text-anchor="middle" x="346.379" y="-236.5" font-family="Helvetica,sans-Serif" font-size="10.00" fill="#000000">fibos_accounts</text>
<polyline fill="none" stroke="#000000" points="297.383,-229.5 395.375,-229.5 "/>
<text text-anchor="start" x="305.383" y="-216.5" font-family="Helvetica,sans-Serif" font-size="10.00" fill="#000000">+ name : text</text>
<text text-anchor="start" x="305.383" y="-204.5" font-family="Helvetica,sans-Serif" font-size="10.00" fill="#000000">+ created : date</text>
<text text-anchor="start" x="305.383" y="-192.5" font-family="Helvetica,sans-Serif" font-size="10.00" fill="#000000">+ createdAt : date</text>
<text text-anchor="start" x="305.383" y="-180.5" font-family="Helvetica,sans-Serif" font-size="10.00" fill="#000000">+ updatedAt : date</text>
<text text-anchor="start" x="305.383" y="-168.5" font-family="Helvetica,sans-Serif" font-size="10.00" fill="#000000">+ id : serial</text>
</a>
</g>
</g>
<!-- fibos_accounts&#45;&gt;fibos_accounts -->
<g id="edge1" class="edge">
<title>fibos_accounts&#45;&gt;fibos_accounts</title>
<path fill="none" stroke="#000000" stroke-dasharray="5,2" d="M395.4565,-222.193C405.8613,-220.4979 413.375,-214.9336 413.375,-205.5 413.375,-199.3092 410.1391,-194.7848 404.9738,-191.9266"/>
<polygon fill="none" stroke="#000000" points="406.0492,-188.596 395.4565,-188.807 403.8688,-195.2478 406.0492,-188.596"/>
<text text-anchor="middle" x="428.932" y="-202.5" font-family="Helvetica,sans-Serif" font-size="10.00" fill="#000000">creator</text>
</g>
<!-- fibos_permissions -->
<g id="node4" class="node">
<title>fibos_permissions</title>
<g id="a_node4"><a xlink:title="fibos_permissions">
<polygon fill="#ffffff" stroke="#000000" points="297.383,-.5 297.383,-88.5 395.375,-88.5 395.375,-.5 297.383,-.5"/>
<text text-anchor="middle" x="346.379" y="-75.5" font-family="Helvetica,sans-Serif" font-size="10.00" fill="#000000">fibos_permissions</text>
<polyline fill="none" stroke="#000000" points="297.383,-68.5 395.375,-68.5 "/>
<text text-anchor="start" x="305.383" y="-55.5" font-family="Helvetica,sans-Serif" font-size="10.00" fill="#000000">+ pub_key : text</text>
<text text-anchor="start" x="305.383" y="-43.5" font-family="Helvetica,sans-Serif" font-size="10.00" fill="#000000">+ permission : text</text>
<text text-anchor="start" x="305.383" y="-31.5" font-family="Helvetica,sans-Serif" font-size="10.00" fill="#000000">+ createdAt : date</text>
<text text-anchor="start" x="305.383" y="-19.5" font-family="Helvetica,sans-Serif" font-size="10.00" fill="#000000">+ updatedAt : date</text>
<text text-anchor="start" x="305.383" y="-7.5" font-family="Helvetica,sans-Serif" font-size="10.00" fill="#000000">+ id : serial</text>
</a>
</g>
</g>
<!-- fibos_accounts&#45;&gt;fibos_permissions -->
<g id="edge2" class="edge">
<title>fibos_accounts&#45;&gt;fibos_permissions</title>
<path fill="none" stroke="#000000" stroke-dasharray="5,2" d="M316.9453,-161.4623C309.1017,-144.6495 304.0369,-125.1578 309.047,-107 309.8774,-103.9902 310.8952,-100.9794 312.0565,-97.9956"/>
<polygon fill="#000000" stroke="#000000" points="315.3701,-99.1555 316.1998,-88.5932 308.9645,-96.3327 315.3701,-99.1555"/>
<text text-anchor="middle" x="336.045" y="-110" font-family="Helvetica,sans-Serif" font-size="10.00" fill="#000000">permissions</text>
</g>
<!-- fibos_permissions&#45;&gt;fibos_accounts -->
<g id="edge3" class="edge">
<title>fibos_permissions&#45;&gt;fibos_accounts</title>
<path fill="none" stroke="#000000" stroke-dasharray="5,2" d="M359.1316,-88.6216C360.4741,-94.7489 361.6231,-100.9991 362.379,-107 364.1911,-121.385 363.1085,-136.8914 360.8302,-151.2486"/>
<polygon fill="none" stroke="#000000" points="357.3178,-151.0044 358.9843,-161.4673 364.2063,-152.2488 357.3178,-151.0044"/>
<text text-anchor="middle" x="380.8865" y="-110" font-family="Helvetica,sans-Serif" font-size="10.00" fill="#000000">account</text>
</g>
</g>
</svg>
