<?xml version="1.0" encoding="UTF-8" standalone="no"?>
<!DOCTYPE svg PUBLIC "-//W3C//DTD SVG 1.1//EN"
 "http://www.w3.org/Graphics/SVG/1.1/DTD/svg11.dtd">
<!-- Generated by graphviz version 2.40.1 (20161225.0304)
 -->
<!-- Title: %0 Pages: 1 -->
<svg width="320pt" height="467pt"
 viewBox="0.00 0.00 320.49 467.00" xmlns="http://www.w3.org/2000/svg" xmlns:xlink="http://www.w3.org/1999/xlink">
<g id="graph0" class="graph" transform="scale(1 1) rotate(0) translate(4 463)">
<title>%0</title>
<polygon fill="#ffffff" stroke="transparent" points="-4,4 -4,-463 316.489,-463 316.489,4 -4,4"/>
<!-- fibos_accounts -->
<g id="node4" class="node">
<title>fibos_accounts</title>
<g id="a_node4"><a xlink:title="fibos_accounts">
<polygon fill="#ffffff" stroke="#000000" points="165.383,-352.5 165.383,-428.5 263.375,-428.5 263.375,-352.5 165.383,-352.5"/>
<text text-anchor="middle" x="214.379" y="-415.5" font-family="Helvetica,sans-Serif" font-size="10.00" fill="#000000">fibos_accounts</text>
<polyline fill="none" stroke="#000000" points="165.383,-408.5 263.375,-408.5 "/>
<text text-anchor="start" x="173.383" y="-395.5" font-family="Helvetica,sans-Serif" font-size="10.00" fill="#000000">+ id : text</text>
<text text-anchor="start" x="173.383" y="-383.5" font-family="Helvetica,sans-Serif" font-size="10.00" fill="#000000">+ created : date</text>
<text text-anchor="start" x="173.383" y="-371.5" font-family="Helvetica,sans-Serif" font-size="10.00" fill="#000000">+ createdAt : date</text>
<text text-anchor="start" x="173.383" y="-359.5" font-family="Helvetica,sans-Serif" font-size="10.00" fill="#000000">+ updatedAt : date</text>
</a>
</g>
</g>
<!-- fibos_accounts&#45;&gt;fibos_accounts -->
<g id="edge7" class="edge">
<title>fibos_accounts&#45;&gt;fibos_accounts</title>
<path fill="none" stroke="#000000" stroke-dasharray="5,2" d="M263.4565,-407.193C273.8613,-405.4979 281.375,-399.9336 281.375,-390.5 281.375,-384.3092 278.1391,-379.7848 272.9738,-376.9266"/>
<polygon fill="none" stroke="#000000" points="274.0492,-373.596 263.4565,-373.807 271.8688,-380.2478 274.0492,-373.596"/>
<text text-anchor="middle" x="296.932" y="-387.5" font-family="Helvetica,sans-Serif" font-size="10.00" fill="#000000">creator</text>
</g>
<!-- fibos_permissions -->
<g id="node5" class="node">
<title>fibos_permissions</title>
<g id="a_node5"><a xlink:title="fibos_permissions">
<polygon fill="#ffffff" stroke="#000000" points="175.383,-173.5 175.383,-261.5 273.375,-261.5 273.375,-173.5 175.383,-173.5"/>
<text text-anchor="middle" x="224.379" y="-248.5" font-family="Helvetica,sans-Serif" font-size="10.00" fill="#000000">fibos_permissions</text>
<polyline fill="none" stroke="#000000" points="175.383,-241.5 273.375,-241.5 "/>
<text text-anchor="start" x="183.383" y="-228.5" font-family="Helvetica,sans-Serif" font-size="10.00" fill="#000000">+ pub_key : text</text>
<text text-anchor="start" x="183.383" y="-216.5" font-family="Helvetica,sans-Serif" font-size="10.00" fill="#000000">+ permission : text</text>
<text text-anchor="start" x="183.383" y="-204.5" font-family="Helvetica,sans-Serif" font-size="10.00" fill="#000000">+ createdAt : date</text>
<text text-anchor="start" x="183.383" y="-192.5" font-family="Helvetica,sans-Serif" font-size="10.00" fill="#000000">+ updatedAt : date</text>
<text text-anchor="start" x="183.383" y="-180.5" font-family="Helvetica,sans-Serif" font-size="10.00" fill="#000000">+ id : serial</text>
</a>
</g>
</g>
<!-- fibos_accounts&#45;&gt;fibos_permissions -->
<g id="edge8" class="edge">
<title>fibos_accounts&#45;&gt;fibos_permissions</title>
<path fill="none" stroke="#000000" stroke-dasharray="5,2" d="M187.5347,-352.1513C178.1115,-334.1224 171.1745,-312.1943 177.047,-292 179.1356,-284.8177 182.1486,-277.6657 185.6575,-270.7938"/>
<polygon fill="#000000" stroke="#000000" points="188.9514,-272.0678 190.7094,-261.6198 182.8197,-268.6911 188.9514,-272.0678"/>
<text text-anchor="middle" x="204.045" y="-295" font-family="Helvetica,sans-Serif" font-size="10.00" fill="#000000">permissions</text>
</g>
<!-- fibos_permissions&#45;&gt;fibos_accounts -->
<g id="edge9" class="edge">
<title>fibos_permissions&#45;&gt;fibos_accounts</title>
<path fill="none" stroke="#000000" stroke-dasharray="5,2" d="M228.519,-261.5859C229.2931,-271.5772 229.9828,-282.1463 230.379,-292 231.0412,-308.4724 229.0005,-326.3082 226.1748,-342.218"/>
<polygon fill="none" stroke="#000000" points="222.6757,-341.8802 224.225,-352.3611 229.5499,-343.2016 222.6757,-341.8802"/>
<text text-anchor="middle" x="247.8865" y="-295" font-family="Helvetica,sans-Serif" font-size="10.00" fill="#000000">account</text>
</g>
</g>
</svg>
