<?xml version="1.0" encoding="UTF-8" standalone="no"?>
<!DOCTYPE svg PUBLIC "-//W3C//DTD SVG 1.1//EN"
 "http://www.w3.org/Graphics/SVG/1.1/DTD/svg11.dtd">
<!-- Generated by graphviz version 2.40.1 (20161225.0304)
 -->
<!-- Title: %0 Pages: 1 -->
<svg width="321pt" height="467pt"
 viewBox="0.00 0.00 321.49 467.00" xmlns="http://www.w3.org/2000/svg" xmlns:xlink="http://www.w3.org/1999/xlink">
<g id="graph0" class="graph" transform="scale(1 1) rotate(0) translate(4 463)">
<title>%0</title>
<polygon fill="#ffffff" stroke="transparent" points="-4,4 -4,-463 317.489,-463 317.489,4 -4,4"/>
<!-- fibos_blocks -->
<g id="node1" class="node">
<title>fibos_blocks</title>
<g id="a_node1"><a xlink:title="fibos_blocks">
<polygon fill="#ffffff" stroke="#000000" points="1,-322.5 1,-458.5 131.758,-458.5 131.758,-322.5 1,-322.5"/>
<text text-anchor="middle" x="66.379" y="-445.5" font-family="Helvetica,sans-Serif" font-size="10.00" fill="#000000">fibos_blocks</text>
<polyline fill="none" stroke="#000000" points="1,-438.5 131.758,-438.5 "/>
<text text-anchor="start" x="9" y="-425.5" font-family="Helvetica,sans-Serif" font-size="10.00" fill="#000000">+ id : serial</text>
<text text-anchor="start" x="9" y="-413.5" font-family="Helvetica,sans-Serif" font-size="10.00" fill="#000000">+ block_num : integer</text>
<text text-anchor="start" x="9" y="-401.5" font-family="Helvetica,sans-Serif" font-size="10.00" fill="#000000">+ block_time : date</text>
<text text-anchor="start" x="9" y="-389.5" font-family="Helvetica,sans-Serif" font-size="10.00" fill="#000000">+ producer_block_id : text</text>
<text text-anchor="start" x="9" y="-377.5" font-family="Helvetica,sans-Serif" font-size="10.00" fill="#000000">+ previous : text</text>
<text text-anchor="start" x="9" y="-365.5" font-family="Helvetica,sans-Serif" font-size="10.00" fill="#000000">+ producer : text</text>
<text text-anchor="start" x="9" y="-353.5" font-family="Helvetica,sans-Serif" font-size="10.00" fill="#000000">+ status : enum</text>
<text text-anchor="start" x="9" y="-341.5" font-family="Helvetica,sans-Serif" font-size="10.00" fill="#000000">+ createdAt : date</text>
<text text-anchor="start" x="9" y="-329.5" font-family="Helvetica,sans-Serif" font-size="10.00" fill="#000000">+ updatedAt : date</text>
</a>
</g>
</g>
<!-- fibos_transactions -->
<g id="node2" class="node">
<title>fibos_transactions</title>
<g id="a_node2"><a xlink:title="fibos_transactions">
<polygon fill="#ffffff" stroke="#000000" points="0,-161.5 0,-273.5 130.758,-273.5 130.758,-161.5 0,-161.5"/>
<text text-anchor="middle" x="65.379" y="-260.5" font-family="Helvetica,sans-Serif" font-size="10.00" fill="#000000">fibos_transactions</text>
<polyline fill="none" stroke="#000000" points="0,-253.5 130.758,-253.5 "/>
<text text-anchor="start" x="8" y="-240.5" font-family="Helvetica,sans-Serif" font-size="10.00" fill="#000000">+ id : serial</text>
<text text-anchor="start" x="8" y="-228.5" font-family="Helvetica,sans-Serif" font-size="10.00" fill="#000000">+ producer_block_id : text</text>
<text text-anchor="start" x="8" y="-216.5" font-family="Helvetica,sans-Serif" font-size="10.00" fill="#000000">+ trx_id : text</text>
<text text-anchor="start" x="8" y="-204.5" font-family="Helvetica,sans-Serif" font-size="10.00" fill="#000000">+ rawData : object</text>
<text text-anchor="start" x="8" y="-192.5" font-family="Helvetica,sans-Serif" font-size="10.00" fill="#000000">+ contract_action : text</text>
<text text-anchor="start" x="8" y="-180.5" font-family="Helvetica,sans-Serif" font-size="10.00" fill="#000000">+ createdAt : date</text>
<text text-anchor="start" x="8" y="-168.5" font-family="Helvetica,sans-Serif" font-size="10.00" fill="#000000">+ updatedAt : date</text>
</a>
</g>
</g>
<!-- fibos_blocks&#45;&gt;fibos_transactions -->
<g id="edge1" class="edge">
<title>fibos_blocks&#45;&gt;fibos_transactions</title>
<path fill="none" stroke="#000000" stroke-dasharray="5,2" d="M34.8396,-322.4228C32.9401,-312.3221 32.4943,-301.9604 34.478,-292 35.0421,-289.1676 35.7159,-286.308 36.478,-283.4441"/>
<polygon fill="#000000" stroke="#000000" points="39.8733,-284.3059 39.3786,-273.7226 33.1655,-282.3044 39.8733,-284.3059"/>
<text text-anchor="middle" x="62.3295" y="-295" font-family="Helvetica,sans-Serif" font-size="10.00" fill="#000000">transactions</text>
</g>
<!-- fibos_transactions&#45;&gt;fibos_blocks -->
<g id="edge2" class="edge">
<title>fibos_transactions&#45;&gt;fibos_blocks</title>
<path fill="none" stroke="#000000" stroke-dasharray="5,2" d="M84.6451,-273.628C86.1705,-279.7691 87.4704,-285.9768 88.379,-292 89.3799,-298.6353 89.5891,-305.4898 89.2209,-312.3493"/>
<polygon fill="none" stroke="#000000" points="85.7292,-312.098 88.2933,-322.3779 92.6995,-312.7428 85.7292,-312.098"/>
<text text-anchor="middle" x="101.0475" y="-295" font-family="Helvetica,sans-Serif" font-size="10.00" fill="#000000">block</text>
</g>
<!-- fibos_actions -->
<g id="node3" class="node">
<title>fibos_actions</title>
<g id="a_node3"><a xlink:title="fibos_actions">
<polygon fill="#ffffff" stroke="#000000" points="3.0495,-.5 3.0495,-112.5 127.7085,-112.5 127.7085,-.5 3.0495,-.5"/>
<text text-anchor="middle" x="65.379" y="-99.5" font-family="Helvetica,sans-Serif" font-size="10.00" fill="#000000">fibos_actions</text>
<polyline fill="none" stroke="#000000" points="3.0495,-92.5 127.7085,-92.5 "/>
<text text-anchor="start" x="11.0495" y="-79.5" font-family="Helvetica,sans-Serif" font-size="10.00" fill="#000000">+ id : serial</text>
<text text-anchor="start" x="11.0495" y="-67.5" font-family="Helvetica,sans-Serif" font-size="10.00" fill="#000000">+ global_sequence : text</text>
<text text-anchor="start" x="11.0495" y="-55.5" font-family="Helvetica,sans-Serif" font-size="10.00" fill="#000000">+ trx_id : text</text>
<text text-anchor="start" x="11.0495" y="-43.5" font-family="Helvetica,sans-Serif" font-size="10.00" fill="#000000">+ contract_action : text</text>
<text text-anchor="start" x="11.0495" y="-31.5" font-family="Helvetica,sans-Serif" font-size="10.00" fill="#000000">+ rawData : object</text>
<text text-anchor="start" x="11.0495" y="-19.5" font-family="Helvetica,sans-Serif" font-size="10.00" fill="#000000">+ createdAt : date</text>
<text text-anchor="start" x="11.0495" y="-7.5" font-family="Helvetica,sans-Serif" font-size="10.00" fill="#000000">+ updatedAt : date</text>
</a>
</g>
</g>
<!-- fibos_transactions&#45;&gt;fibos_actions -->
<g id="edge3" class="edge">
<title>fibos_transactions&#45;&gt;fibos_actions</title>
<path fill="none" stroke="#000000" stroke-dasharray="5,2" d="M40.9212,-161.2014C38.8246,-151.238 38.048,-140.8878 39.704,-131 40.1807,-128.1539 40.7531,-125.271 41.4023,-122.3767"/>
<polygon fill="#000000" stroke="#000000" points="44.8341,-123.0807 43.8775,-112.5292 38.0453,-121.3743 44.8341,-123.0807"/>
<text text-anchor="middle" x="56.2165" y="-134" font-family="Helvetica,sans-Serif" font-size="10.00" fill="#000000">actions</text>
</g>
<!-- fibos_actions&#45;&gt;fibos_transactions -->
<g id="edge6" class="edge">
<title>fibos_actions&#45;&gt;fibos_transactions</title>
<path fill="none" stroke="#000000" stroke-dasharray="5,2" d="M71.0714,-112.7753C71.5787,-122.8346 71.7721,-133.2232 71.379,-143 71.2704,-145.7025 71.1396,-148.4588 70.9911,-151.2422"/>
<polygon fill="none" stroke="#000000" points="67.4874,-151.2004 70.3834,-161.3918 74.4749,-151.6189 67.4874,-151.2004"/>
<text text-anchor="middle" x="96.8295" y="-134" font-family="Helvetica,sans-Serif" font-size="10.00" fill="#000000">transaction</text>
</g>
<!-- fibos_actions&#45;&gt;fibos_actions -->
<g id="edge4" class="edge">
<title>fibos_actions&#45;&gt;fibos_actions</title>
<path fill="none" stroke="#000000" stroke-dasharray="5,2" d="M128.0242,-63.4708C138.4881,-62.4955 145.7085,-60.1719 145.7085,-56.5 145.7085,-54.2051 142.888,-52.4368 138.218,-51.1952"/>
<polygon fill="#000000" stroke="#000000" points="138.4579,-47.6881 128.0242,-49.5292 137.3287,-54.5964 138.4579,-47.6881"/>
<text text-anchor="middle" x="173.4925" y="-53.5" font-family="Helvetica,sans-Serif" font-size="10.00" fill="#000000">inline_action</text>
</g>
<!-- fibos_actions&#45;&gt;fibos_actions -->
<g id="edge5" class="edge">
<title>fibos_actions&#45;&gt;fibos_actions</title>
<path fill="none" stroke="#000000" stroke-dasharray="5,2" d="M127.8054,-70.9278C164.4424,-73.2624 201.2765,-68.4531 201.2765,-56.5 201.2765,-45.6675 171.0251,-40.7021 138.0842,-41.604"/>
<polygon fill="none" stroke="#000000" points="137.6357,-38.1207 127.8054,-42.0722 137.9543,-45.1134 137.6357,-38.1207"/>
<text text-anchor="middle" x="215.4485" y="-53.5" font-family="Helvetica,sans-Serif" font-size="10.00" fill="#000000">parent</text>
</g>
<!-- fibos_accounts -->
<g id="node4" class="node">
<title>fibos_accounts</title>
<g id="a_node4"><a xlink:title="fibos_accounts">
<polygon fill="#ffffff" stroke="#000000" points="166.383,-352.5 166.383,-428.5 264.375,-428.5 264.375,-352.5 166.383,-352.5"/>
<text text-anchor="middle" x="215.379" y="-415.5" font-family="Helvetica,sans-Serif" font-size="10.00" fill="#000000">fibos_accounts</text>
<polyline fill="none" stroke="#000000" points="166.383,-408.5 264.375,-408.5 "/>
<text text-anchor="start" x="174.383" y="-395.5" font-family="Helvetica,sans-Serif" font-size="10.00" fill="#000000">+ id : text</text>
<text text-anchor="start" x="174.383" y="-383.5" font-family="Helvetica,sans-Serif" font-size="10.00" fill="#000000">+ created : date</text>
<text text-anchor="start" x="174.383" y="-371.5" font-family="Helvetica,sans-Serif" font-size="10.00" fill="#000000">+ createdAt : date</text>
<text text-anchor="start" x="174.383" y="-359.5" font-family="Helvetica,sans-Serif" font-size="10.00" fill="#000000">+ updatedAt : date</text>
</a>
</g>
</g>
<!-- fibos_accounts&#45;&gt;fibos_accounts -->
<g id="edge7" class="edge">
<title>fibos_accounts&#45;&gt;fibos_accounts</title>
<path fill="none" stroke="#000000" stroke-dasharray="5,2" d="M264.4565,-407.193C274.8613,-405.4979 282.375,-399.9336 282.375,-390.5 282.375,-384.3092 279.1391,-379.7848 273.9738,-376.9266"/>
<polygon fill="none" stroke="#000000" points="275.0492,-373.596 264.4565,-373.807 272.8688,-380.2478 275.0492,-373.596"/>
<text text-anchor="middle" x="297.932" y="-387.5" font-family="Helvetica,sans-Serif" font-size="10.00" fill="#000000">creator</text>
</g>
<!-- fibos_permissions -->
<g id="node5" class="node">
<title>fibos_permissions</title>
<g id="a_node5"><a xlink:title="fibos_permissions">
<polygon fill="#ffffff" stroke="#000000" points="175.3385,-161.5 175.3385,-273.5 279.4195,-273.5 279.4195,-161.5 175.3385,-161.5"/>
<text text-anchor="middle" x="227.379" y="-260.5" font-family="Helvetica,sans-Serif" font-size="10.00" fill="#000000">fibos_permissions</text>
<polyline fill="none" stroke="#000000" points="175.3385,-253.5 279.4195,-253.5 "/>
<text text-anchor="start" x="183.3385" y="-240.5" font-family="Helvetica,sans-Serif" font-size="10.00" fill="#000000">+ pub_key : text</text>
<text text-anchor="start" x="183.3385" y="-228.5" font-family="Helvetica,sans-Serif" font-size="10.00" fill="#000000">+ permission : text</text>
<text text-anchor="start" x="183.3385" y="-216.5" font-family="Helvetica,sans-Serif" font-size="10.00" fill="#000000">+ start_time : date</text>
<text text-anchor="start" x="183.3385" y="-204.5" font-family="Helvetica,sans-Serif" font-size="10.00" fill="#000000">+ expire_time : date</text>
<text text-anchor="start" x="183.3385" y="-192.5" font-family="Helvetica,sans-Serif" font-size="10.00" fill="#000000">+ createdAt : date</text>
<text text-anchor="start" x="183.3385" y="-180.5" font-family="Helvetica,sans-Serif" font-size="10.00" fill="#000000">+ updatedAt : date</text>
<text text-anchor="start" x="183.3385" y="-168.5" font-family="Helvetica,sans-Serif" font-size="10.00" fill="#000000">+ id : serial</text>
</a>
</g>
</g>
<!-- fibos_accounts&#45;&gt;fibos_permissions -->
<g id="edge8" class="edge">
<title>fibos_accounts&#45;&gt;fibos_permissions</title>
<path fill="none" stroke="#000000" stroke-dasharray="5,2" d="M189.0413,-352.0647C179.826,-334.0175 173.0984,-312.0991 179.047,-292 179.9371,-288.9925 180.991,-285.9925 182.177,-283.0178"/>
<polygon fill="#000000" stroke="#000000" points="185.4897,-284.1833 186.3753,-273.6256 179.0991,-281.3266 185.4897,-284.1833"/>
<text text-anchor="middle" x="206.045" y="-295" font-family="Helvetica,sans-Serif" font-size="10.00" fill="#000000">permissions</text>
</g>
<!-- fibos_permissions&#45;&gt;fibos_accounts -->
<g id="edge9" class="edge">
<title>fibos_permissions&#45;&gt;fibos_accounts</title>
<path fill="none" stroke="#000000" stroke-dasharray="5,2" d="M231.5494,-273.6171C231.8898,-279.817 232.1792,-286.0403 232.379,-292 232.5577,-297.3303 232.8957,-298.6918 232.379,-304 231.1627,-316.4955 228.9804,-329.8647 226.576,-342.2647"/>
<polygon fill="none" stroke="#000000" points="223.0756,-341.9164 224.5205,-352.4122 229.9362,-343.3062 223.0756,-341.9164"/>
<text text-anchor="middle" x="249.8865" y="-295" font-family="Helvetica,sans-Serif" font-size="10.00" fill="#000000">account</text>
</g>
</g>
</svg>
